{"title":"Jack Ryan Shadow Recruit 2014 WEBRip x264 AAC-HeartAttack","uid":10100334,"size":419728743,"categoryP":"video","categoryS":"hd___movies","magnet":"?xt=urn:btih:2b9255d2710e592639006ef61313d8d41dd444a4&amp;dn=Jack+Ryan+Shadow+Recruit+2014+WEBRip+x264+AAC-HeartAttack&amp;tr=udp%3A%2F%2Ftracker.openbittorrent.com%3A80&amp;tr=udp%3A%2F%2Fopen.demonii.com%3A1337&amp;tr=udp%3A%2F%2Ftracker.coppersurfer.tk%3A6969&amp;tr=udp%3A%2F%2Fexodus.desync.com%3A6969","seeders":3,"leechers":0,"uploader":"lokioddin","files":2,"time":1399387151,"description":"SilverTorrent - Clean And Verified Torrents Download\n\n\n\nJack Ryan Shadow Recruit 2014 WEBRip x264 AAC-HeartAttack\n\n &lt;a href=&quot;\nhttp://www.imdb.com/title/tt1205537/&quot; rel=&quot;nofollow&quot; target=&quot;_NEW&quot;&gt;\nhttp://www.imdb.com/title/tt1205537/&lt;/a&gt;\n\n\nFormat                                   : MPEG-4\nFormat profile                           : Base Media\nCodec ID                                 : isom\nFile size                                : 400 MiB\nDuration                                 : 1h 39mn\nOverall bit rate mode                    : Variable\nOverall bit rate                         : 565 Kbps\n\nVideo\nID                                       : 1\nFormat                                   : AVC\nFormat/Info                              : Advanced Video Codec\nFormat profile                           : &lt;a class=&quot;__cf_email__&quot; href=&quot;/cdn-cgi/l/email-protection&quot; data-cfemail=&quot;a0edc1c9cee0ec938e90&quot;&gt;[email&amp;#160;protected]&lt;/a&gt;&lt;script cf-hash='f9e31' type=&quot;text/javascript&quot;&gt;\n/* &lt;![CDATA[ */!function(){try{var t=&quot;currentScript&quot;in document?document.currentScript:function(){for(var t=document.getElementsByTagName(&quot;script&quot;),e=t.length;e--;)if(t[e].getAttribute(&quot;cf-hash&quot;))return t[e]}();if(t&amp;&amp;t.previousSibling){var e,r,n,i,c=t.previousSibling,a=c.getAttribute(&quot;data-cfemail&quot;);if(a){for(e=&quot;&quot;,r=parseInt(a.substr(0,2),16),n=2;a.length-n;n+=2)i=parseInt(a.substr(n,2),16)^r,e+=String.fromCharCode(i);e=document.createTextNode(e),c.parentNode.replaceChild(e,c)}}}catch(u){}}();/* ]]&gt; */&lt;/script&gt;\nFormat settings, CABAC                   : Yes\nFormat settings, ReFrames                : 4 frames\nCodec ID                                 : avc1\nCodec ID/Info                            : Advanced Video Coding\nDuration                                 : 1h 39mn\nBit rate                                 : 513 Kbps\nMaximum bit rate                         : 1 437 Kbps\nWidth                                    : 720 pixels\nHeight                                   : 304 pixels\nDisplay aspect ratio                     : 2.35:1\nFrame rate mode                          : Constant\nFrame rate                               : 23.976 fps\nColor space                              : YUV\nChroma subsampling                       : 4:2:0\nBit depth                                : 8 bits\nScan type                                : Progressive\nBits/(Pixel*Frame)                       : 0.098\nStream size                              : 363 MiB (91%)\nWriting library                          : x264 core 138 r2358 9e941d1\n\nAudio\nID                                       : 2\nFormat                                   : AAC\nFormat/Info                              : Advanced Audio Codec\nFormat profile                           : LC\nCodec ID                                 : 40\nDuration                                 : 1h 39mn\nBit rate mode                            : Variable\nBit rate                                 : 48.0 Kbps\nMaximum bit rate                         : 59.2 Kbps\nChannel(s)                               : 2 channels\nChannel positions                        : Front: L R\nSampling rate                            : 48.0 KHz\nCompression mode                         : Lossy\nStream size                              : 34.0 MiB (8%)\n\nS C R E E N S H O T S :............\n &lt;a href=&quot;\nhttp://lookpic.com/O/i2/391/Y6NvzJdd.png&quot; rel=&quot;nofollow&quot; target=&quot;_NEW&quot;&gt;\nhttp://lookpic.com/O/i2/391/Y6NvzJdd.png&lt;/a&gt;\n\nSilverTorrent - Clean And Verified Torrents Download\n\n","torrent":{"xt":"urn:btih:2b9255d2710e592639006ef61313d8d41dd444a4","amp;dn":"Jack+Ryan+Shadow+Recruit+2014+WEBRip+x264+AAC-HeartAttack","amp;tr":["udp%3A%2F%2Ftracker.openbittorrent.com%3A80","udp%3A%2F%2Fopen.demonii.com%3A1337","udp%3A%2F%2Ftracker.coppersurfer.tk%3A6969","udp%3A%2F%2Fexodus.desync.com%3A6969"],"infoHash":"2b9255d2710e592639006ef61313d8d41dd444a4","infoHashBuffer":{"type":"Buffer","data":[43,146,85,210,113,14,89,38,57,0,110,246,19,19,216,212,29,212,68,164]},"announce":[],"urlList":[]}}